<?xml version="1.0" encoding="UTF-8"?><svg id="Layer_1" xmlns="http://www.w3.org/2000/svg" viewBox="0 0 824.1 503.81"><defs><style>.cls-1{fill:#31afc7;}</style></defs><path d="M25.82,222.56v185.18h66.4v-122.47h27.3v122.47h65.66v-27.67c0-4.74,4.31-15.44,6.78-19.78,18.92-33.2,68.52-35.86,90.91-4.87,4.16,5.76,10.03,18.34,10.03,25.39v26.93h43.53c-1.03-25.59,3.61-52.84-6.75-76.99-22.2-51.79-92.89-33.21-136.35-29.29l-2.94-19.09c45.02-11.53,105.68-22.46,143.83,11.38,38.91,34.51,26.81,91.31,28.76,137.61H0v-208.79h25.82ZM267.81,407.74v-27.67c0-1.51-2.66-7.27-3.56-8.98-11.19-21.1-40.88-19.86-51.43,1.2-.67,1.35-3.29,8.27-3.29,9.25v26.19h58.28Z"/><path d="M625.64,285.27v122.47h67.14c-4.48-31.51-4.34-64.65.95-96.07.53-3.12,2.99-17.76,4.64-18.97,2.63-1.92,14.9-4.18,18.74-4.87,29.06-5.29,74.17-6.07,94.44,19.22,4.87,6.08,12.56,23.36,12.56,30.97v93.33h-198.46v14.39c0,15.77-14.36,34.67-26.77,43.32-33.88,23.63-99.39,19.15-125.09-15.41-15.72-21.14-13.09-40.79-10.36-65.45,2.2-19.87,5.75-39.68,8.83-59.41l26.46,3.64c-2.51,21.64-7.55,43.61-9.56,65.27-1.9,20.58-2.46,37.5,15.55,50.84,24.64,18.26,78.9,17.09,91.25-15.61.56-1.48,2.39-6.83,2.39-7.94v-159.73h27.3ZM798.28,407.74c-1.47-22.48,2.73-48.17-1.82-70.12-5.78-27.9-30.16-29.95-54.65-28.78-3.92.19-16.71,1.19-19.76,2.38-1.8.7-3,11.81-3.35,14.36-3.75,27.14-3.41,55.2,1.37,82.16h78.2Z"/><path d="M367.41,86.8v117.31h64.92c-5.5-33.92-5.64-71.23,1.71-104.9.62-2.84.16-5.07,3.03-6.56,4.83-2.51,22.94-5.44,28.84-5.84,44.35-2.98,73.03,8.99,75.65,57.14,1.28,23.56-1.03,48.3-.03,71.97l-147.9.03c-29.98-3.6-84.73,7.39-110.82-7.29-24.21-13.62-24.1-57.51-19.95-81.43,9.67-55.72,63.28-36.99,104.55-40.42ZM354.87,97.87c-22.78,1.98-66.34-8-77.09,19.19-6.06,15.34-6.2,54.43.52,69.55,4.93,11.07,18.69,17.5,30.45,17.5h46.11v-106.24ZM444.14,204.11h84.48c1.05-.65,1.02-1.47,1.14-2.54,1.46-12.48.48-34.84-.05-47.99-1-25.06-4.04-47.91-32.43-53.89-16.54-3.49-35.48-1.79-51.68,2.39-6.73,33.57-6.72,68.24-1.46,102.03Z"/><path d="M672.12,204.11h140.92v-76.36c0-6.37-6.62-16.26-11.56-20.16-20.37-16.08-59.29-7.15-83.19-4.64-1.53-.37-2.06-8.44-1.82-10.17,30.69-6.84,86.8-15.14,104.08,19.35.54,1.07,3.56,8.5,3.56,8.98v93.7l-1.11,1.11h-250.48v-11.8h87.8c-1.83-24.78,4-55.28-4.09-78.91-10.53-30.76-43.78-27.36-70.43-27.33v-11.07c16.38.16,32.16-1.27,48.12,3.16,50.62,14.05,35.93,74.47,38.2,114.15Z"/><rect x="530.46" y="253.54" width="26.56" height="28.04"/><rect x="293.64" y="39.59" width="12.54" height="16.97"/><rect x="329.05" y="39.59" width="12.54" height="16.97"/><rect x="759.18" y="50.65" width="11.8" height="16.97"/><path class="cls-1" d="M67.29,8.62s35.62-17.92,67.49-2.08c31.87,15.83,16.46,17.29,16.46,17.29l-65.62.62-14.37-5.83-3.96-10Z"/><g id="GBF6nN.tif"><path class="cls-1" d="M139.04,6.29c44.12,16.63,72.15,64.62,65.55,112.07-7.69,55.22-57.46,96.44-94.02,135.25-.6.45-4.23,2.43-4.8,2.56-.79.18-4.73-.17-5.61-.35-1.86-.39-3.57-1.59-4.93-2.82-6.36-5.74-13.4-13.18-19.41-19.41-.53-.55-.97-2.09-1.78-2.94-19.37-20.23-37.74-38.5-52.55-62.17-9.87-15.78-17.85-34.06-20.07-52.58-.33-2.78.3-6.07.05-8.21-.11-.98-.84-1.54-.9-2.44-.07-1.21.77-1.77.9-2.85.28-2.49-.72-6.82-.02-9.74.08-.31.75-.26.82-.56.18-.83-.35-1.75-.31-2.68.07-1.4.92-2.42,1.09-3.41,1.28-7.41,3-14.9,5.94-21.84,3.81-9.01,9.29-18.13,15.52-25.76,9.59-11.74,21.83-21.94,35.69-28.47,5.95-2.81,17.72-7.71,24.42-8.32,1.37-.13,7.18-.77,8.38-.84,18.17-1.08,29.08-.9,46.06,5.5ZM141.46,34.52c-48-25.25-101.61-.12-113.58,51.81-9.57,41.5,14.71,74.46,40.4,103.29,2.56,2.87,6.94,7.27,8.87,10.53.19.31,2.03,1.23,2.54,1.75,6.32,6.5,12.8,13.48,19.23,20,1.29,1.3,3.86,5.3,5.94,3.52,8.04-8.31,15.85-16.5,23.66-24.98,29.25-31.73,60.82-67.65,50.87-113.83-4.41-20.47-19.7-42.51-37.92-52.1Z"/><path class="cls-1" d="M145.42,103.9c-15.24,15.74-30.92,31.07-46.32,46.65-3.73,3.19-8.86,4.48-13.49,2.45-4.28-1.88-15.25-14.43-19.19-18.41-5.09-5.14-14.31-11.37-13.91-19.18.37-7.32,7.1-12.98,14.47-11.62,6.28,1.16,14.65,12.44,19.59,16.98,1.22,1.13,3.29,3.4,4.88,2.93l27.29-27.08c2.19-2.17,4.33-4.36,6.54-6.54,6.43-6.34,13.93-17.8,24.3-9.63,2.8,2.21,5.25,7.58,4.68,11.23-.93,5.88-5.09,8.36-8.83,12.22Z"/></g></svg>